<?xml version="1.0" encoding="UTF-8"?><svg id="Layer_2" xmlns="http://www.w3.org/2000/svg" xmlns:xlink="http://www.w3.org/1999/xlink" viewBox="0 0 32 32"><defs><style>.cls-1,.cls-2{stroke-miterlimit:10;}.cls-1,.cls-2,.cls-3,.cls-4{stroke:#6b6b6b;stroke-width:1.5px;}.cls-1,.cls-2,.cls-4{fill:none;}.cls-5{fill:url(#linear-gradient);}.cls-6{fill:#6b6b6b;}.cls-2{stroke-linecap:square;}.cls-3{fill:url(#linear-gradient-2);fill-rule:evenodd;}.cls-3,.cls-4{stroke-linecap:round;stroke-linejoin:round;}</style><linearGradient id="linear-gradient" x1="16" y1="2738.56" x2="16" y2="2745.5" gradientTransform="translate(0 -2735.37)" gradientUnits="userSpaceOnUse"><stop offset="0" stop-color="#f9984d"/><stop offset="1" stop-color="#efb563"/></linearGradient><linearGradient id="linear-gradient-2" x1="24.08" y1="2756.9" x2="24.08" y2="2764.29" xlink:href="#linear-gradient"/></defs><path class="cls-5" d="m2.12,6.17c0-1.59,1.38-2.98,2.98-2.98h21.8c1.59,0,2.98,1.38,2.98,2.98v3.93H2.12v-3.93Z"/><path class="cls-2" d="m3.08,10.1h25.73"/><path class="cls-1" d="m14.99,28.28H5.21c-1.38,0-2.55-1.17-2.55-2.55V5.63c0-1.38,1.17-2.55,2.55-2.55h21.69c1.38,0,2.55,1.17,2.55,2.55v8.72"/><g><path class="cls-6" d="m6.59,7.55c.53,0,.85-.43.85-.85s-.43-.85-.85-.85-.85.43-.85.85.43.85.85.85Z"/><path class="cls-6" d="m9.89,7.55c.53,0,.85-.43.85-.85s-.43-.85-.85-.85-.85.43-.85.85.32.85.85.85Z"/><path class="cls-6" d="m13.18,7.55c.53,0,.85-.43.85-.85s-.43-.85-.85-.85c-.53,0-.85.43-.85.85s.32.85.85.85Z"/></g><g><path class="cls-4" d="m27.43,21.58v-3.3c0-.85-.32-1.7-.96-2.34-.64-.64-1.49-.96-2.34-.96s-1.7.32-2.34.96c-.64.64-.96,1.49-.96,2.34v3.3"/><path class="cls-3" d="m18.71,21.58h10.74c.21,0,.32.11.32.32v6.7c0,.21-.11.32-.32.32h-10.74c-.21,0-.32-.11-.32-.32v-6.7c0-.21.21-.32.32-.32Z"/></g></svg>