<svg width="16" height="16" viewBox="0 0 16 16" fill="none" xmlns="http://www.w3.org/2000/svg">
<rect x="1.55566" y="1.64453" width="12.8889" height="12.6222" fill="white"/>
<path d="M13.2571 13.2574H11.0445V9.79218C11.0445 8.96587 11.0297 7.90215 9.89365 7.90215C8.74122 7.90215 8.5649 8.80245 8.5649 9.73203V13.2572H6.35225V6.13127H8.4764V7.1051H8.50613C8.71871 6.74163 9.02589 6.44261 9.39495 6.23991C9.76402 6.03721 10.1812 5.9384 10.6019 5.95402C12.8445 5.95402 13.258 7.42917 13.258 9.34826L13.2571 13.2574ZM3.85564 5.15721C3.60168 5.15725 3.35341 5.08199 3.14223 4.94093C2.93105 4.79987 2.76644 4.59936 2.66921 4.36474C2.57198 4.13013 2.54651 3.87195 2.59601 3.62285C2.64551 3.37376 2.76776 3.14493 2.9473 2.96532C3.12684 2.78571 3.35561 2.66337 3.60468 2.61378C3.85375 2.56419 4.11193 2.58957 4.34657 2.68672C4.58122 2.78386 4.78178 2.94841 4.92291 3.15955C5.06404 3.37069 5.13939 3.61894 5.13944 3.8729C5.13947 4.04153 5.10629 4.20851 5.04179 4.36432C4.97729 4.52012 4.88273 4.66169 4.76352 4.78095C4.64431 4.90021 4.50277 4.99482 4.347 5.05938C4.19123 5.12394 4.02426 5.15718 3.85564 5.15721ZM4.96197 13.2574H2.74701V6.13127H4.96197V13.2574ZM14.3602 0.53422H1.63515C1.34633 0.530961 1.06803 0.642504 0.861399 0.84434C0.654773 1.04618 0.536728 1.32179 0.533203 1.61062V14.3889C0.536607 14.6779 0.654577 14.9537 0.861196 15.1557C1.06782 15.3578 1.34618 15.4695 1.63515 15.4665H14.3602C14.6497 15.4701 14.9289 15.3586 15.1363 15.1566C15.3438 14.9546 15.4625 14.6784 15.4665 14.3889V1.6097C15.4624 1.3203 15.3436 1.04437 15.1361 0.842537C14.9287 0.640707 14.6496 0.529481 14.3602 0.533298" fill="#0A66C2"/>
</svg>
