<svg width="16" height="16" viewBox="0 0 16 16" fill="none" xmlns="http://www.w3.org/2000/svg">
<path d="M5.03168 14.5121C11.0694 14.5121 14.3718 9.50982 14.3718 5.1719C14.3718 5.02982 14.3718 4.88838 14.3622 4.74758C15.0047 4.28288 15.5593 3.7075 16 3.04838C15.4009 3.31385 14.7653 3.48795 14.1146 3.56486C14.7998 3.15461 15.3127 2.50936 15.5578 1.74918C14.9134 2.13155 14.2084 2.40103 13.4733 2.54598C12.9783 2.0197 12.3237 1.67121 11.6108 1.55444C10.8978 1.43767 10.1663 1.55913 9.52931 1.90002C8.89234 2.24091 8.38548 2.78223 8.08716 3.44021C7.78884 4.0982 7.71569 4.83616 7.87904 5.5399C6.57392 5.47447 5.29715 5.13531 4.13161 4.54444C2.96607 3.95356 1.93782 3.12419 1.1136 2.11014C0.693819 2.83281 0.565248 3.68829 0.754066 4.50242C0.942885 5.31655 1.43489 6.02811 2.12992 6.49222C1.60751 6.47674 1.0965 6.33581 0.64 6.08134C0.64 6.09478 0.64 6.10886 0.64 6.12294C0.640207 6.88084 0.902567 7.61534 1.38258 8.20185C1.86259 8.78836 2.53071 9.19078 3.2736 9.34086C2.79032 9.47266 2.28325 9.49193 1.79136 9.39718C2.00113 10.0494 2.40951 10.6198 2.95941 11.0286C3.5093 11.4373 4.17319 11.664 4.85824 11.6769C3.69583 12.5904 2.25988 13.0863 0.78144 13.0849C0.520258 13.0844 0.259331 13.0685 0 13.0375C1.50121 14.0009 3.24794 14.5119 5.03168 14.5095" fill="#1DA1F2"/>
</svg>
