<svg width="16" height="16" viewBox="0 0 16 16" fill="none" xmlns="http://www.w3.org/2000/svg">
<path d="M15.6657 4.11572C15.4817 3.42286 14.9396 2.8772 14.2511 2.69201C13.0034 2.35547 8 2.35547 8 2.35547C8 2.35547 2.99667 2.35547 1.74894 2.69201C1.06043 2.8772 0.518183 3.42286 0.334296 4.11572C0 5.37156 0 7.99186 0 7.99186C0 7.99186 0 10.612 0.334296 11.868C0.518183 12.5609 1.06043 13.1065 1.74887 13.2918C2.9966 13.6283 7.99993 13.6283 7.99993 13.6283C7.99993 13.6283 13.0033 13.6283 14.251 13.2918C14.9395 13.1065 15.4816 12.5609 15.6656 11.8681C16 10.6121 16 7.99193 16 7.99193C16 7.99193 16 5.37163 15.6656 4.11579" fill="#FF0000"/>
<path d="M6.36377 10.3708L10.5456 7.99194L6.36377 5.61279V10.3708Z" fill="white"/>
</svg>
